Coordinates
version=1
nRows=6
nColumns=36
inDegrees=yes

Units are S.I. units (second, meters, Newtons, ...)
If the header above contains a line with 'inDegrees', this indicates whether rotational values are in degrees (yes) or radians (no).

endheader
time	pelvis_tilt	pelvis_list	pelvis_rotation	pelvis_tx	pelvis_ty	pelvis_tz	hip_flexion_r	hip_adduction_r	hip_rotation_r	knee_angle_r	knee_angle_r_beta	ankle_angle_r	subtalar_angle_r	mtp_angle_r	hip_flexion_l	hip_adduction_l	hip_rotation_l	knee_angle_l	knee_angle_l_beta	ankle_angle_l	subtalar_angle_l	mtp_angle_l	lumbar_extension	lumbar_bending	lumbar_rotation	arm_flex_r	arm_add_r	arm_rot_r	elbow_flex_r	pro_sup_r	arm_flex_l	arm_add_l	arm_rot_l	elbow_flex_l	pro_sup_l
      5.01666670	     -5.29110041	      0.15175403	     -0.73448800	      0.31808028	      1.01888859	     -0.09886940	     -0.21491455	     -6.22557368	      4.69808806	      1.83157874	      0.03196708	      5.90792931	     -4.92896092	     -7.49999987	      2.82560237	     -1.62060449	     10.29482798	      3.44780809	      0.06017560	      2.40304653	    -12.40657767	     -7.49999987	      4.08443463	      0.80213051	      5.44714915	     -0.89638242	     -9.02331357	     -7.74551810	     36.96459310	     74.32145798	      5.61527725	     -3.66060303	     -3.03126843	     22.85208354	     65.42024139
      5.03333330	     -5.18122821	      0.19695464	     -0.93690806	      0.31444881	      1.01949282	     -0.09412421	     -0.22689201	     -6.23315677	      4.98114258	      1.77241405	      0.03093446	      6.04071317	     -4.92870227	     -7.49999987	      2.65183298	     -1.56453495	     10.17485130	      3.30140275	      0.05762035	      2.36786480	    -12.49580889	     -7.49999987	      3.83292715	      0.74592764	      5.48775386	     -0.55686583	     -9.01540120	     -7.59962845	     36.73055908	     74.49709236	      5.42454369	     -3.42062576	     -3.02933336	     22.93856398	     65.57783235
      5.05000000	     -5.14718666	      0.26917429	     -0.96555811	      0.31792562	      1.01959415	     -0.09863152	     -0.25538611	     -6.39006915	      4.96761964	      1.76521637	      0.03080884	      6.01911717	     -4.93758570	     -7.49999987	      2.63344373	     -1.41093376	     10.21968314	      3.28836706	      0.05739283	      2.32972014	    -12.45858826	     -7.49999987	      3.74058893	      0.77985388	      5.44936537	     -0.55356883	     -9.08529846	     -7.60759942	     36.64871595	     74.50814709	      5.24642013	     -3.07075485	     -2.97653991	     22.88154695	     65.59831962
      5.06666670	     -4.91965804	      0.35108448	     -1.02619857	      0.31821252	      1.02014999	     -0.09854817	     -0.55914672	     -6.54856147	      4.94153368	      1.65501162	      0.02888540	      5.96676768	     -4.94185027	     -7.49999987	      2.30813446	     -1.25862998	     10.30365926	      3.10508216	      0.05419391	      2.17339482	    -12.65028259	     -7.49999987	      3.55284429	      0.73344284	      5.03913563	      0.30353491	     -9.06444037	     -6.87090757	     35.01705009	     73.36522486	      5.01222129	     -2.74727557	     -3.08397765	     22.30777170	     65.28753744
      5.08333330	     -4.89235637	      0.37052609	     -1.05572039	      0.32194988	      1.02298960	     -0.09385846	     -0.66605409	     -6.54950404	      4.96690266	      1.61643590	      0.02821213	      5.99036570	     -4.91620231	     -7.49999987	      2.23603474	     -1.24590749	     10.31938511	      3.12244984	      0.05449703	      2.13678599	    -12.62732674	     -7.49999987	      3.46945444	      0.66459460	      5.05716791	      0.17004679	     -8.92249943	     -6.82925953	     34.93890539	     73.38283997	      4.72735382	     -2.49893213	     -3.03687744	     22.19494214	     65.30439119
      5.10000000	     -4.52513764	      0.40358805	     -1.10997899	      0.32211168	      1.02034718	     -0.09382017	     -1.26190111	     -6.59177364	      4.80414137	      1.39961960	      0.02442797	      6.11839777	     -4.50340963	     -7.49999987	      1.65916293	     -1.22269738	     10.18215237	      2.96348350	      0.05172254	      2.24479123	    -12.42906401	     -7.49999987	      3.22343301	      0.60075122	      4.94417074	      0.62602844	     -9.08687122	     -5.10584165	     33.64903712	     71.85804287	      4.88592054	     -2.37438767	     -1.69312070	     20.91382062	     65.14499437
